<svg xmlns="http://www.w3.org/2000/svg" xmlns:xlink="http://www.w3.org/1999/xlink" id="Layer_2" viewBox="0 0 860.4 464.24"><defs><style>.cls-1{fill:url(#linear-gradient);}.cls-2{fill:url(#linear-gradient-8);}.cls-3{fill:url(#linear-gradient-9);}.cls-4{fill:url(#linear-gradient-3);}.cls-5{fill:url(#linear-gradient-4);}.cls-6{fill:url(#linear-gradient-2);}.cls-7{fill:url(#linear-gradient-6);}.cls-8{fill:url(#linear-gradient-7);}.cls-9{fill:url(#linear-gradient-5);}.cls-10{fill:url(#linear-gradient-10);}.cls-11{fill:url(#linear-gradient-11);}</style><linearGradient id="linear-gradient" x1="434.4" y1="-3.44" x2="434.4" y2="470.38" gradientUnits="userSpaceOnUse"><stop offset="0" stop-color="#5acfda"></stop><stop offset=".77" stop-color="#00689f"></stop></linearGradient><linearGradient id="linear-gradient-2" x1="434.4" y1="-3.44" x2="434.4" y2="470.38" xlink:href="#linear-gradient"></linearGradient><linearGradient id="linear-gradient-3" x1="138.54" y1="-3.44" x2="138.54" y2="470.36" xlink:href="#linear-gradient"></linearGradient><linearGradient id="linear-gradient-4" x1="46.81" y1="-3.44" x2="46.81" y2="470.38" xlink:href="#linear-gradient"></linearGradient><linearGradient id="linear-gradient-5" x1="174.53" y1="-3.44" x2="174.53" y2="470.38" xlink:href="#linear-gradient"></linearGradient><linearGradient id="linear-gradient-6" x1="302.15" y1="-3.44" x2="302.15" y2="470.38" xlink:href="#linear-gradient"></linearGradient><linearGradient id="linear-gradient-7" x1="429.78" y1="-3.44" x2="429.78" y2="470.38" xlink:href="#linear-gradient"></linearGradient><linearGradient id="linear-gradient-8" x1="557.49" y1="-3.44" x2="557.49" y2="470.38" xlink:href="#linear-gradient"></linearGradient><linearGradient id="linear-gradient-9" x1="685.04" y1="-3.44" x2="685.04" y2="470.38" xlink:href="#linear-gradient"></linearGradient><linearGradient id="linear-gradient-10" x1="812.58" y1="-3.44" x2="812.58" y2="470.38" xlink:href="#linear-gradient"></linearGradient><linearGradient id="linear-gradient-11" x1="738.36" y1="-3.44" x2="738.36" y2="470.3" xlink:href="#linear-gradient"></linearGradient></defs><g id="Layer_1-2"><g><path class="cls-1" d="M296.26,324.55c3.39,.3,15.93,.49,33.91,.62,12.59-23.68,36.79-42.25,66.71-50.88,11.84-3.42,24.58-5.28,37.85-5.28s26.13,1.88,38.03,5.33c29.78,8.64,53.88,27.13,66.47,50.7,17.75-.07,29.95-.13,32.87-.16,.81,0,1.62-.3,2.42-.5,20.39-5.01,30.58-26.7,22.05-46.78-33.08-77.87-66.14-155.75-99.19-233.64-11.15-26.27-34.37-41.53-63.22-41.47-28.53,.05-51.71,15.48-62.72,41.48-26.28,62.06-52.64,124.08-78.97,186.11-6.85,16.15-13.8,32.26-20.54,48.46-8.43,20.26,3.61,44.19,24.33,46.01Zm84.44-120.25c2.23-5.35,24.21-82.02,32.89-102.54,3.64-8.59,11.3-13.69,20.73-13.71,9.54-.02,17.21,5.02,20.9,13.71,10.92,25.74,21.85,76.49,32.79,102.23,2.75,6.48-.4,13.46-6.83,15.32-9.54-12.78-26.71-21.3-46.32-21.3s-36.92,8.59-46.43,21.45c-6.65-.82-10.47-8.57-7.73-15.16Z"></path><circle class="cls-6" cx="434.4" cy="142" r="15"></circle><path class="cls-4" d="M275.05,114.54C270.27,50.51,232.67,10.84,168.93,3.83,129.1-.55,88.6,.79,48.39,.28,15.43-.14,.61,14.78,.47,47.47c-.03,6.18-.07,272.53-.07,272.53,0,0,118.09,1.43,169.73-2.48,58.63-4.43,98.41-43.1,103.65-98.34,3.29-34.64,3.87-69.96,1.27-104.65Zm-88.62,92.66c-2.67,29.53-19.14,42.19-48.92,43.63-10.57,.51-20.13,.15-31.76,.15-13.78,0-18.73-6.05-18.73-19.28,0-43.7-.63-161.75-.63-161.75,15.19-.07,31.99-.36,48.78,.12,30.23,.86,49.13,15.41,51.69,45.22,2.61,30.43,2.33,61.47-.42,91.91Z"></path><path class="cls-5" d="M84.74,355.92c-2.74-2.74-5.92-4.9-9.57-6.49-3.65-1.59-7.52-2.4-11.62-2.4H30.07c-4.11,0-7.98,.8-11.62,2.4-3.65,1.59-6.83,3.75-9.56,6.49-2.73,2.73-4.9,5.92-6.49,9.56-1.59,3.65-2.39,7.58-2.39,11.79v9.91c0,4.11,.8,8.01,2.39,11.7,1.59,3.7,3.76,6.93,6.49,9.66,2.73,2.73,5.92,4.9,9.56,6.49,3.65,1.59,7.52,2.39,11.62,2.39H63.56c1.94,0,3.53,.63,4.79,1.88,1.25,1.26,1.88,2.85,1.88,4.79v9.91c0,1.94-.63,3.57-1.88,4.87-1.26,1.31-2.85,1.96-4.79,1.96H30.07c-1.83,0-3.39-.66-4.7-1.96-1.31-1.31-1.97-2.93-1.97-4.87v-1.19c0-1.03-.37-1.91-1.11-2.65-.75-.74-1.63-1.11-2.65-1.11H3.76c-1.02,0-1.91,.37-2.64,1.11s-1.11,1.62-1.11,2.65v1.19c0,4.22,.8,8.15,2.39,11.79,1.59,3.65,3.76,6.84,6.49,9.57,2.73,2.73,5.92,4.9,9.56,6.5,3.65,1.59,7.52,2.39,11.62,2.39H63.56c4.1,0,7.97-.8,11.62-2.39,3.65-1.6,6.83-3.76,9.57-6.5,2.73-2.73,4.89-5.92,6.49-9.57,1.6-3.65,2.4-7.58,2.4-11.79v-9.91c0-4.1-.8-7.97-2.4-11.62-1.59-3.65-3.76-6.84-6.49-9.57-2.74-2.73-5.92-4.9-9.57-6.49-3.65-1.59-7.52-2.39-11.62-2.39H30.07c-1.83,0-3.39-.66-4.7-1.96-1.31-1.31-1.97-2.93-1.97-4.87v-9.91c0-1.94,.65-3.56,1.97-4.87,1.31-1.31,2.87-1.96,4.7-1.96H63.56c1.94,0,3.53,.66,4.79,1.96,1.25,1.31,1.88,2.94,1.88,4.87v1.2c0,1.02,.37,1.91,1.11,2.64,.74,.75,1.62,1.11,2.64,1.11h16.06c1.02,0,1.88-.37,2.56-1.11,.69-.74,1.03-1.62,1.03-2.64v-1.2c0-4.22-.8-8.15-2.4-11.79-1.59-3.65-3.76-6.83-6.49-9.56Z"></path><path class="cls-9" d="M217.67,347.03h-86.29c-1.02,0-1.91,.37-2.64,1.11-.75,.75-1.11,1.63-1.11,2.65v16.06c0,1.03,.37,1.89,1.11,2.56,.74,.69,1.62,1.02,2.64,1.02h31.44v90.04c0,1.03,.34,1.91,1.03,2.65,.68,.75,1.53,1.11,2.56,1.11h16.06c1.02,0,1.91-.37,2.64-1.11,.75-.74,1.11-1.62,1.11-2.65v-90.04h31.44c1.02,0,1.91-.34,2.64-1.02,.74-.68,1.11-1.53,1.11-2.56v-16.06c0-1.02-.37-1.91-1.11-2.65-.74-.74-1.62-1.11-2.64-1.11Z"></path><path class="cls-7" d="M345.3,347.03h-16.06c-1.02,0-1.91,.37-2.64,1.11-.75,.75-1.11,1.63-1.11,2.65v83.2c0,1.94-.63,3.57-1.88,4.87-1.26,1.31-2.85,1.96-4.79,1.96h-33.49c-1.83,0-3.39-.66-4.7-1.96-1.31-1.31-1.97-2.93-1.97-4.87v-83.2c0-1.02-.37-1.91-1.11-2.65-.75-.74-1.63-1.11-2.65-1.11h-15.89c-1.02,0-1.91,.37-2.64,1.11-.75,.75-1.11,1.63-1.11,2.65v83.2c0,4.22,.8,8.15,2.39,11.79,1.59,3.65,3.76,6.84,6.49,9.57,2.73,2.73,5.92,4.9,9.56,6.5,3.65,1.59,7.52,2.39,11.62,2.39h33.49c4.1,0,8-.8,11.7-2.39,3.7-1.6,6.92-3.76,9.65-6.5,2.73-2.73,4.89-5.92,6.49-9.57,1.59-3.65,2.39-7.58,2.39-11.79v-83.2c0-1.02-.37-1.91-1.11-2.65-.74-.74-1.62-1.11-2.64-1.11Z"></path><path class="cls-8" d="M467.8,355.92c-2.73-2.74-5.95-4.9-9.65-6.49-3.7-1.59-7.6-2.4-11.7-2.4h-59.8c-1.02,0-1.91,.37-2.64,1.11-.75,.75-1.11,1.63-1.11,2.65v109.69c0,1.03,.37,1.91,1.11,2.65,.74,.75,1.62,1.11,2.64,1.11h59.8c4.1,0,8-.8,11.7-2.39,3.7-1.6,6.92-3.76,9.65-6.5,2.73-2.73,4.89-5.92,6.49-9.57,1.59-3.65,2.39-7.58,2.39-11.79v-56.72c0-4.22-.8-8.15-2.39-11.79-1.6-3.65-3.76-6.83-6.49-9.56Zm-14.69,78.07c0,1.94-.63,3.57-1.88,4.87-1.26,1.31-2.85,1.96-4.79,1.96h-40.15v-70.4h40.15c1.94,0,3.53,.66,4.79,1.96,1.25,1.31,1.88,2.94,1.88,4.87v56.72Z"></path><path class="cls-2" d="M598.33,347.03h-81.67c-1.03,0-1.91,.37-2.65,1.11-.75,.75-1.11,1.63-1.11,2.65v16.06c0,1.03,.37,1.89,1.11,2.56,.74,.69,1.62,1.02,2.65,1.02h29.04v70.4h-29.04c-1.03,0-1.91,.37-2.65,1.11s-1.11,1.62-1.11,2.64v15.89c0,1.03,.37,1.91,1.11,2.65,.74,.75,1.62,1.11,2.65,1.11h81.67c1.02,0,1.91-.37,2.64-1.11,.74-.74,1.11-1.62,1.11-2.65v-15.89c0-1.02-.37-1.9-1.11-2.64-.74-.74-1.62-1.11-2.64-1.11h-29.22v-70.4h29.22c1.02,0,1.91-.34,2.64-1.02,.74-.68,1.11-1.53,1.11-2.56v-16.06c0-1.02-.37-1.91-1.11-2.65-.74-.74-1.62-1.11-2.64-1.11Z"></path><path class="cls-3" d="M723.05,356.09c-2.73-2.73-5.93-4.9-9.57-6.49-3.65-1.59-7.58-2.39-11.78-2.39h-33.32c-4.22,0-8.15,.8-11.79,2.39-3.65,1.6-6.83,3.76-9.56,6.49-2.73,2.73-4.9,5.92-6.49,9.57-1.59,3.65-2.39,7.52-2.39,11.62v56.9c0,4.1,.8,7.97,2.39,11.62,1.59,3.65,3.76,6.84,6.49,9.57,2.73,2.73,5.92,4.9,9.56,6.5,3.65,1.59,7.58,2.39,11.79,2.39h33.32c4.21,0,8.14-.8,11.78-2.39,3.65-1.6,6.84-3.76,9.57-6.5,2.73-2.73,4.89-5.92,6.49-9.57,1.59-3.65,2.39-7.52,2.39-11.62v-56.9c0-4.1-.8-7.97-2.39-11.62-1.6-3.65-3.76-6.84-6.49-9.57Zm-14.52,78.08c0,1.94-.66,3.53-1.97,4.79-1.31,1.25-2.93,1.88-4.87,1.88h-33.32c-1.94,0-3.56-.63-4.87-1.88-1.32-1.26-1.97-2.85-1.97-4.79v-56.9c0-1.94,.65-3.53,1.97-4.79,1.31-1.25,2.93-1.88,4.87-1.88h33.32c1.94,0,3.56,.63,4.87,1.88,1.31,1.26,1.97,2.85,1.97,4.79v56.9Z"></path><path class="cls-10" d="M850.51,355.92c-2.74-2.74-5.92-4.9-9.57-6.49-3.65-1.59-7.52-2.4-11.62-2.4h-33.49c-4.11,0-7.98,.8-11.62,2.4-3.65,1.59-6.83,3.75-9.56,6.49-2.73,2.73-4.9,5.92-6.49,9.56-1.59,3.65-2.39,7.58-2.39,11.79v9.91c0,4.11,.8,8.01,2.39,11.7,1.59,3.7,3.76,6.93,6.49,9.66,2.73,2.73,5.92,4.9,9.56,6.49,3.65,1.59,7.52,2.39,11.62,2.39h33.49c1.94,0,3.53,.63,4.78,1.88,1.25,1.26,1.88,2.85,1.88,4.79v9.91c0,1.94-.63,3.57-1.88,4.87-1.26,1.31-2.85,1.96-4.78,1.96h-33.49c-1.83,0-3.39-.66-4.7-1.96-1.31-1.31-1.97-2.93-1.97-4.87v-1.19c0-1.03-.37-1.91-1.11-2.65-.75-.74-1.63-1.11-2.65-1.11h-15.89c-1.02,0-1.91,.37-2.64,1.11s-1.11,1.62-1.11,2.65v1.19c0,4.22,.8,8.15,2.39,11.79,1.59,3.65,3.76,6.84,6.49,9.57,2.73,2.73,5.92,4.9,9.56,6.5,3.65,1.59,7.52,2.39,11.62,2.39h33.49c4.1,0,7.97-.8,11.62-2.39,3.65-1.6,6.83-3.76,9.57-6.5,2.73-2.73,4.89-5.92,6.49-9.57,1.6-3.65,2.4-7.58,2.4-11.79v-9.91c0-4.1-.8-7.97-2.4-11.62-1.59-3.65-3.76-6.84-6.49-9.57-2.74-2.73-5.92-4.9-9.57-6.49-3.65-1.59-7.52-2.39-11.62-2.39h-33.49c-1.83,0-3.39-.66-4.7-1.96-1.31-1.31-1.97-2.93-1.97-4.87v-9.91c0-1.94,.65-3.56,1.97-4.87s2.87-1.96,4.7-1.96h33.49c1.94,0,3.53,.66,4.78,1.96,1.25,1.31,1.88,2.94,1.88,4.87v1.2c0,1.02,.37,1.91,1.11,2.64,.74,.75,1.62,1.11,2.64,1.11h16.06c1.02,0,1.88-.37,2.56-1.11,.69-.74,1.03-1.62,1.03-2.64v-1.2c0-4.22-.8-8.15-2.4-11.79-1.59-3.65-3.76-6.83-6.49-9.56Z"></path><path class="cls-11" d="M838.45,250.47c-38.04-.13-96.84-.42-136.05,.14v-57.61h126V127s-92.16-.59-126-.55v-56.39c42.12-.03,99.38-.17,137.54,.2,14.84,.14,20.46-5.25,20.46-20.83V0s-140.16,.41-197.84,.63c-31.09,.12-46.01,14.78-46.09,45.63-.02,6.58-.03,13.16-.04,19.74h-.03v13.63c-.15,73.08,0,240.37,0,240.37,0,0,243,0,243,.05s.02-22.05,.02-48.2c.15-18.2-2.96-21.32-20.97-21.38Z"></path></g></g></svg>